# xmcd
#
# Track frame offsets:
#	150
#	9620
#	21510
#	37657
#	53752
#	65037
#	75012
#	86660
#	107880
#	125807
#	148545
#
# Disc length: 2190 seconds
#
# Revision: 0
# Processed by: cddbd v1.5.1PL0 Copyright (c) Steve Scherf et al.
# Submitted via: dBpowerAMP V4.0
#
DISCID=8b088c0b
DTITLE=Barbara Morrison - Doing All Right
DYEAR=1900
DGENRE=Blues
TTITLE0=I Was Doing All Right
TTITLE1=Ain't Misbehavin'
TTITLE2=You Go to My Head
TTITLE3=Never Make Your Move Too Soon
TTITLE4=Nothing Changes My Love for You
TTITLE5=I'm Beginning to See the Light
TTITLE6=Like Someone I Love
TTITLE7=Don't Take Your Love from Me
TTITLE8=My Funny Valentine
TTITLE9=Easy Living
TTITLE10=Someone Else Is Stepping In
EXTD=
EXTT0=
EXTT1=
EXTT2=
EXTT3=
EXTT4=
EXTT5=
EXTT6=
EXTT7=
EXTT8=
EXTT9=
EXTT10=
PLAYORDER=
